<svg width="24.000000" height="24.000000" viewBox="0 0 24 24" fill="none" xmlns="http://www.w3.org/2000/svg" xmlns:xlink="http://www.w3.org/1999/xlink">
	<desc>
			Created with Pixso.
	</desc>
	<defs>
		<clipPath id="clip11_258">
			<rect id="Frame" width="24.000000" height="24.000000" fill="white" fill-opacity="0"/>
		</clipPath>
	</defs>
	<rect id="Frame" width="24.000000" height="24.000000" fill="#FFFFFF" fill-opacity="0"/>
	<g clip-path="url(#clip11_258)">
		<path id="Vector" d="M21 4.5L3 4.5C2.6 4.5 2.22 4.65 1.93 4.93C1.65 5.22 1.5 5.6 1.5 6L1.5 18C1.5 18.39 1.65 18.77 1.93 19.06C2.22 19.34 2.6 19.5 3 19.5L21 19.5C21.39 19.5 21.77 19.34 22.06 19.06C22.34 18.77 22.5 18.39 22.5 18L22.5 6C22.5 5.6 22.34 5.22 22.06 4.93C21.77 4.65 21.39 4.5 21 4.5ZM19.35 6L12 11.08L4.65 6L19.35 6ZM3 18L3 6.68L11.57 12.61C11.69 12.7 11.84 12.74 12 12.74C12.15 12.74 12.3 12.7 12.42 12.61L21 6.68L21 18L3 18Z" fill="#512689" fill-opacity="1.000000" fill-rule="nonzero"/>
	</g>
</svg>
