<svg width="24.000000" height="24.000000" viewBox="0 0 24 24" fill="none" xmlns="http://www.w3.org/2000/svg" xmlns:xlink="http://www.w3.org/1999/xlink">
	<desc>
			Created with Pixso.
	</desc>
	<defs>
		<clipPath id="clip11_254">
			<rect id="Frame" width="24.000000" height="24.000000" fill="white" fill-opacity="0"/>
		</clipPath>
	</defs>
	<rect id="Frame" width="24.000000" height="24.000000" fill="#FFFFFF" fill-opacity="0"/>
	<g clip-path="url(#clip11_254)">
		<path id="Vector" d="M7.17 2.33C6.78 1.88 6.06 1.88 5.61 2.34L2.83 5.12C2 5.95 1.76 7.18 2.24 8.17C5.1 14.1 9.88 18.88 15.8 21.75C16.79 22.23 18.02 21.99 18.85 21.16L21.65 18.35C22.11 17.89 22.11 17.18 21.66 16.79L17.74 13.42C17.33 13.07 16.69 13.12 16.28 13.53L14.91 14.89C14.84 14.97 14.75 15.01 14.65 15.03C14.55 15.05 14.45 15.03 14.36 14.98C12.13 13.7 10.28 11.85 9 9.61C8.95 9.52 8.93 9.42 8.95 9.32C8.97 9.22 9.01 9.13 9.09 9.06L10.45 7.7C10.86 7.29 10.91 6.64 10.55 6.23L10.55 6.24L7.17 2.33Z" stroke="#512689" stroke-opacity="1.000000" stroke-width="2.000000" stroke-linejoin="round"/>
	</g>
</svg>
